<svg width="32" height="32" viewBox="0 0 32 32" fill="none" xmlns="http://www.w3.org/2000/svg">
<path d="M28.6003 1H3.39503C2.47206 1 1.71875 1.75544 1.71875 2.68103V18.0213H30.28V2.68103C30.28 1.75204 29.5301 1 28.6037 1H28.6003ZM11.7832 3.64065C11.2369 3.64065 10.7958 3.19487 10.7958 2.64701C10.7958 2.09914 11.2369 1.65336 11.7832 1.65336C12.3295 1.65336 12.7741 2.09914 12.7741 2.64701C12.7741 3.19487 12.3295 3.64065 11.7832 3.64065ZM20.1714 3.64065C19.6251 3.64065 19.184 3.19487 19.184 2.64701C19.184 2.09914 19.6251 1.65336 20.1714 1.65336C20.7177 1.65336 21.1623 2.09914 21.1623 2.64701C21.1623 3.19487 20.7177 3.64065 20.1714 3.64065Z" fill="#F4F4F4" stroke="#58595B" stroke-width="0.321218" stroke-miterlimit="10"/>
<path d="M30.2809 15.5879H1.71966L1.24121 29.3186C1.24121 30.2476 1.99113 30.9996 2.91749 30.9996H29.0831C30.0095 30.9996 30.7594 30.2476 30.7594 29.3186L30.2809 15.5845V15.5879Z" fill="#F4F4F4" stroke="#58595B" stroke-width="0.321218" stroke-miterlimit="10"/>
<path d="M12.6929 14.4849L13.7754 18.0205H12.7608V17.6291C12.7608 17.2923 12.754 16.9145 12.7336 16.4994C12.7167 16.0808 12.6963 15.6861 12.6759 15.3152C12.6556 14.9443 12.642 14.6686 12.6318 14.4849H12.6929Z" fill="#A8A8A8"/>
<path d="M19.4926 14.4995H19.5537C19.5435 14.6833 19.5299 14.9589 19.5129 15.323C19.4926 15.6871 19.479 16.0716 19.4688 16.4766C19.4553 16.8815 19.4519 17.2388 19.4519 17.5485V18.0181H18.3389L19.4926 14.4961V14.4995Z" fill="#A8A8A8"/>
<path d="M31 6.17587L30.2806 18.0248H21.3936V17.9805H10.9016V18.0248H1.71938L1 6.17587C1 5.2741 1.75331 4.54248 2.67628 4.54248H29.3203C30.2467 4.54248 30.9966 5.2741 30.9966 6.17587H31Z" fill="#DBDBDB" stroke="#58595B" stroke-width="0.321218" stroke-miterlimit="10"/>
<path d="M9.50488 18.0039V22.4209C9.50488 22.9211 9.90868 23.326 10.4075 23.326H10.964C11.4628 23.326 11.8666 22.9211 11.8666 22.4209V18.0039H9.50488ZM20.377 18.0039V22.4209C20.377 22.9211 20.7808 23.326 21.2796 23.326H21.9379C22.4367 23.326 22.8405 22.9211 22.8405 22.4209V18.0039H20.377ZM16.1082 20.3825H16.0607L15.3278 18.0039H13.1594L14.5948 22.6863C14.7102 23.0674 15.0631 23.326 15.4567 23.326H16.5629C16.9531 23.326 17.2993 23.0742 17.4214 22.7033L18.9654 18.0039H16.8887L16.1116 20.3825H16.1082Z" fill="#BF0000"/>
<path d="M22.8404 11.7226V18.0077H20.3769V17.4088C20.3769 17.0141 20.3837 16.5581 20.3973 16.0442C20.4108 15.5304 20.4278 15.0404 20.4516 14.5776C20.4719 14.1148 20.4923 13.7643 20.5025 13.5295H20.4278L18.9585 18.0077H16.8818L19.0332 11.4401C19.1553 11.0692 19.5014 10.8174 19.8917 10.8174H21.9378C22.4366 10.8174 22.8404 11.2223 22.8404 11.7226Z" fill="#800000"/>
<path d="M11.7813 13.5091H11.7067C11.7202 13.7439 11.7372 14.0944 11.761 14.5674C11.7881 15.037 11.8118 15.5406 11.8356 16.0715C11.8594 16.5989 11.8695 17.0787 11.8695 17.5075V18.0043H9.50781V11.7226C9.50781 11.2223 9.91161 10.8174 10.4104 10.8174H12.443C12.84 10.8174 13.1895 11.076 13.3049 11.4571L15.3273 18.0077H13.159L11.7847 13.5125L11.7813 13.5091Z" fill="#800000"/>
<path d="M6.13762 16.7104H6.13423C5.7969 16.7104 5.52344 16.9847 5.52344 17.323V18.7998C5.52344 19.1381 5.7969 19.4124 6.13423 19.4124H6.13762C6.47495 19.4124 6.74841 19.1381 6.74841 18.7998V17.323C6.74841 16.9847 6.47495 16.7104 6.13762 16.7104Z" fill="#B2B2B2"/>
<path d="M25.8427 16.6299H25.8393C25.502 16.6299 25.2285 16.9041 25.2285 17.2424V18.7193C25.2285 19.0576 25.502 19.3318 25.8393 19.3318H25.8427C26.18 19.3318 26.4535 19.0576 26.4535 18.7193V17.2424C26.4535 16.9041 26.18 16.6299 25.8427 16.6299Z" fill="#B2B2B2"/>
</svg>
