<svg width="217" height="58" viewBox="0 0 217 58" fill="none" xmlns="http://www.w3.org/2000/svg">
<path d="M53.2561 1H5.53594C3.78851 1 2.3623 2.42621 2.3623 4.17364V33.1347H56.4362V4.17364C56.4362 2.41978 55.0164 1 53.2625 1H53.2561ZM21.417 5.98531C20.3826 5.98531 19.5475 5.14372 19.5475 4.10939C19.5475 3.07507 20.3826 2.23348 21.417 2.23348C22.4513 2.23348 23.2929 3.07507 23.2929 4.10939C23.2929 5.14372 22.4513 5.98531 21.417 5.98531ZM37.298 5.98531C36.2637 5.98531 35.4285 5.14372 35.4285 4.10939C35.4285 3.07507 36.2637 2.23348 37.298 2.23348C38.3323 2.23348 39.1739 3.07507 39.1739 4.10939C39.1739 5.14372 38.3323 5.98531 37.298 5.98531Z" fill="#F4F4F4" stroke="#58595B" stroke-width="0.321218" stroke-miterlimit="10"/>
<path d="M56.4358 28.5411H2.36189L1.45605 54.4634C1.45605 56.2173 2.87584 57.637 4.62969 57.637H54.168C55.9218 57.637 57.3416 56.2173 57.3416 54.4634L56.4358 28.5347V28.5411Z" fill="#F4F4F4" stroke="#58595B" stroke-width="0.321218" stroke-miterlimit="10"/>
<path d="M23.1381 26.4595L25.1875 33.1344H23.2666V32.3956C23.2666 31.7596 23.2537 31.0465 23.2152 30.2627C23.1831 29.4725 23.1445 28.7273 23.106 28.027C23.0674 27.3268 23.0417 26.8064 23.0225 26.4595H23.1381Z" fill="#A8A8A8"/>
<path d="M36.0124 26.4854H36.128C36.1088 26.8323 36.0831 27.3527 36.051 28.0401C36.0124 28.7275 35.9867 29.4535 35.9674 30.218C35.9417 30.9825 35.9353 31.657 35.9353 32.2417V33.1282H33.8281L36.0124 26.479V26.4854Z" fill="#A8A8A8"/>
<path d="M57.7978 10.7717L56.4358 33.1413H39.6104V33.0578H19.7463V33.1413H2.36197L1 10.7717C1 9.06923 2.42621 7.68799 4.17364 7.68799H54.6177C56.3716 7.68799 57.7914 9.06923 57.7914 10.7717H57.7978Z" fill="#DBDBDB" stroke="#58595B" stroke-width="0.321218" stroke-miterlimit="10"/>
<path d="M17.1055 33.1025V41.4414C17.1055 42.3857 17.87 43.1502 18.8143 43.1502H19.8679C20.8123 43.1502 21.5768 42.3857 21.5768 41.4414V33.1025H17.1055ZM37.6891 33.1025V41.4414C37.6891 42.3857 38.4536 43.1502 39.398 43.1502H40.6443C41.5887 43.1502 42.3532 42.3857 42.3532 41.4414V33.1025H37.6891ZM29.6073 37.5932H29.5173L28.1297 33.1025H24.0245L26.742 41.9425C26.9604 42.662 27.6286 43.1502 28.3738 43.1502H30.4681C31.2069 43.1502 31.8622 42.6748 32.0935 41.9746L35.0166 33.1025H31.0849L29.6137 37.5932H29.6073Z" fill="#BF0000"/>
<path d="M42.3535 21.2431V33.1089H37.6894V31.9782C37.6894 31.2329 37.7022 30.3721 37.7279 29.402C37.7536 28.4319 37.7857 27.5068 37.8307 26.6331C37.8692 25.7594 37.9078 25.0977 37.9271 24.6544H37.7857L35.004 33.1089H31.0723L35.1453 20.7098C35.3766 20.0096 36.0319 19.5342 36.7707 19.5342H40.6446C41.589 19.5342 42.3535 20.2987 42.3535 21.2431Z" fill="#800000"/>
<path d="M21.4157 24.6159H21.2743C21.3 25.0591 21.3321 25.7208 21.3771 26.6138C21.4285 27.5004 21.4735 28.4512 21.5184 29.4534C21.5634 30.4492 21.5827 31.355 21.5827 32.1645V33.1024H17.1113V21.2431C17.1113 20.2987 17.8758 19.5342 18.8202 19.5342H22.6684C23.4201 19.5342 24.0818 20.0224 24.3002 20.742L28.1291 33.1089H24.0239L21.4221 24.6223L21.4157 24.6159Z" fill="#800000"/>
<path d="M10.7263 30.6611H10.7199C10.0812 30.6611 9.56348 31.1789 9.56348 31.8175V34.6057C9.56348 35.2443 10.0812 35.7621 10.7199 35.7621H10.7263C11.3649 35.7621 11.8827 35.2443 11.8827 34.6057V31.8175C11.8827 31.1789 11.3649 30.6611 10.7263 30.6611Z" fill="#B2B2B2"/>
<path d="M48.0329 30.5073H48.0265C47.3878 30.5073 46.8701 31.0251 46.8701 31.6637V34.4519C46.8701 35.0905 47.3878 35.6083 48.0265 35.6083H48.0329C48.6716 35.6083 49.1893 35.0905 49.1893 34.4519V31.6637C49.1893 31.0251 48.6716 30.5073 48.0329 30.5073Z" fill="#B2B2B2"/>
<path d="M72.5803 12.2236C72.8245 12.2236 73.0814 12.2879 73.3513 12.4228C73.6211 12.5513 73.8267 12.7247 73.968 12.9303L80.3217 22.7146L79.0111 22.6632L85.5254 12.9303C85.8595 12.4613 86.2835 12.2236 86.8039 12.2236C87.2215 12.2236 87.5941 12.3714 87.9281 12.6669C88.2622 12.9624 88.4228 13.3479 88.4228 13.8169V28.9591C88.4228 29.4152 88.2751 29.7943 87.9795 30.0962C87.684 30.4046 87.2921 30.5523 86.8039 30.5523C86.3156 30.5523 85.9173 30.3982 85.6154 30.0962C85.307 29.7943 85.1592 29.4152 85.1592 28.9591V16.6436L86.1807 16.8813L80.8421 25.0145C80.6879 25.2073 80.4887 25.3743 80.251 25.5092C80.0133 25.6506 79.7756 25.7084 79.5315 25.6955C79.3066 25.7148 79.0754 25.6506 78.8377 25.5092C78.6 25.3679 78.4072 25.2073 78.2466 25.0145L73.2485 17.1126L73.9295 15.7249V28.9591C73.9295 29.4152 73.7881 29.7943 73.5119 30.0962C73.2356 30.4046 72.8694 30.5523 72.4133 30.5523C71.9572 30.5523 71.6167 30.3982 71.3404 30.0962C71.0642 29.7943 70.9229 29.4152 70.9229 28.9591V13.8169C70.9229 13.38 71.0835 13.0074 71.4047 12.6926C71.7259 12.3778 72.1178 12.2236 72.5675 12.2236H72.5803Z" fill="white"/>
<path d="M99.0747 16.3543L93.4277 29.6398C93.3056 29.9739 93.1193 30.2309 92.8623 30.4108C92.6118 30.5971 92.3355 30.687 92.04 30.687C91.571 30.687 91.2177 30.5585 90.9928 30.2951C90.768 30.0317 90.6523 29.7105 90.6523 29.3251C90.6523 29.1709 90.678 29.0038 90.7294 28.8304L97.2437 13.187C97.3851 12.8401 97.5971 12.5703 97.8862 12.3776C98.1753 12.1848 98.4836 12.1078 98.8177 12.1399C99.1325 12.1399 99.4216 12.2298 99.6914 12.4161C99.9612 12.596 100.16 12.8594 100.282 13.187L106.72 28.5156C106.81 28.7404 106.848 28.9524 106.848 29.1452C106.848 29.6142 106.694 29.9932 106.392 30.2694C106.084 30.5457 105.75 30.687 105.383 30.687C105.069 30.687 104.786 30.5907 104.535 30.3979C104.285 30.2052 104.086 29.9418 103.944 29.6142L98.323 16.5084L99.0811 16.3543H99.0747ZM94.2371 26.4534L95.6762 23.4468H102.737L103.231 26.4534H94.2307H94.2371Z" fill="white"/>
<path d="M110.953 30.5584C110.465 30.5584 110.028 30.4042 109.643 30.1023C109.257 29.8003 109.064 29.4213 109.064 28.9651V13.8486C109.064 13.3925 109.219 13.0134 109.521 12.7115C109.823 12.4096 110.202 12.2554 110.658 12.2554H118.193C119.099 12.2554 119.947 12.4931 120.744 12.9749C121.534 13.4567 122.177 14.1184 122.665 14.96C123.153 15.808 123.397 16.7781 123.397 17.8767C123.397 18.5384 123.262 19.1873 122.992 19.8104C122.723 20.4336 122.356 21.0054 121.894 21.5129C121.431 22.0204 120.911 22.4123 120.339 22.6885L120.365 22.0846C120.853 22.348 121.258 22.6564 121.579 23.0162C121.9 23.3759 122.157 23.755 122.337 24.1661C122.523 24.5773 122.626 25.0142 122.665 25.4896C122.736 25.9264 122.78 26.3119 122.806 26.6395C122.832 26.9736 122.883 27.2498 122.96 27.4747C123.037 27.6995 123.192 27.873 123.416 27.9951C123.802 28.2199 124.04 28.5476 124.136 28.978C124.232 29.4084 124.136 29.7875 123.834 30.1151C123.641 30.34 123.397 30.4877 123.102 30.5455C122.806 30.6034 122.511 30.6034 122.215 30.5455C121.92 30.4877 121.675 30.4042 121.483 30.295C121.187 30.1215 120.892 29.8646 120.596 29.5241C120.301 29.1836 120.063 28.7274 119.877 28.1492C119.69 27.5711 119.6 26.8323 119.6 25.9264C119.6 25.6309 119.549 25.3547 119.446 25.1041C119.343 24.8536 119.196 24.6351 119.003 24.4488C118.81 24.2689 118.566 24.1276 118.271 24.0312C117.975 23.9349 117.628 23.8899 117.223 23.8899H111.943L112.334 23.286V28.9587C112.334 29.4149 112.212 29.7939 111.968 30.0958C111.724 30.4042 111.384 30.552 110.947 30.552L110.953 30.5584ZM111.975 21.1917H118.071C118.386 21.1917 118.688 21.0503 118.984 20.7612C119.279 20.4721 119.523 20.0802 119.716 19.5856C119.909 19.0909 120.005 18.5448 120.005 17.9538C120.005 17.1893 119.8 16.5468 119.388 16.0329C118.977 15.5189 118.54 15.262 118.065 15.262H112.02L112.334 14.4268V21.8277L111.968 21.1981L111.975 21.1917Z" fill="white"/>
<path d="M128.659 30.5585C128.171 30.5585 127.779 30.4043 127.483 30.1024C127.188 29.8005 127.04 29.4214 127.04 28.9653V13.8488C127.04 13.3926 127.194 13.0136 127.509 12.7116C127.824 12.4097 128.222 12.2555 128.71 12.2555C129.199 12.2555 129.591 12.4097 129.873 12.7116C130.162 13.02 130.304 13.3991 130.304 13.8488V28.9653C130.304 29.4214 130.156 29.8005 129.86 30.1024C129.565 30.4108 129.16 30.5585 128.659 30.5585ZM139.959 12.1206C140.377 12.1206 140.724 12.2876 140.994 12.6281C141.264 12.9686 141.398 13.3155 141.398 13.6625C141.398 14.0286 141.244 14.3691 140.93 14.6839L129.97 25.1749L129.841 21.4359L138.681 12.7245C139.079 12.3262 139.51 12.1206 139.959 12.1206ZM139.645 30.5585C139.156 30.5585 138.765 30.3594 138.469 29.9546L132.43 22.0013L134.814 19.5664L141.064 27.8346C141.309 28.1687 141.431 28.522 141.431 28.9075C141.431 29.3957 141.244 29.794 140.878 30.096C140.512 30.4043 140.101 30.5521 139.651 30.5521L139.645 30.5585Z" fill="white"/>
<path d="M145.767 12.249H154.529C154.986 12.249 155.365 12.3904 155.667 12.6795C155.969 12.9686 156.123 13.3347 156.123 13.7909C156.123 14.247 155.969 14.5811 155.667 14.8509C155.358 15.1207 154.979 15.2556 154.529 15.2556H147.206L147.443 14.8123V19.9133L147.231 19.7013H153.354C153.81 19.7013 154.189 19.8426 154.491 20.1317C154.793 20.4208 154.947 20.787 154.947 21.2431C154.947 21.6993 154.793 22.0333 154.491 22.3032C154.183 22.573 153.804 22.7079 153.354 22.7079H147.309L147.437 22.4959V27.7767L147.225 27.539H154.523C154.979 27.539 155.358 27.6932 155.66 27.9951C155.962 28.3035 156.116 28.6504 156.116 29.0552C156.116 29.492 155.962 29.8518 155.66 30.128C155.352 30.4043 154.973 30.5456 154.523 30.5456H145.76C145.304 30.5456 144.925 30.3914 144.623 30.0895C144.315 29.7875 144.167 29.4085 144.167 28.9524V13.8487C144.167 13.3926 144.321 13.0135 144.623 12.7116C144.925 12.4096 145.304 12.2554 145.76 12.2554L145.767 12.249Z" fill="white"/>
<path d="M159.553 15.2556C159.097 15.2556 158.718 15.1143 158.416 14.838C158.114 14.5618 157.96 14.1956 157.96 13.7395C157.96 13.2833 158.114 12.9236 158.416 12.6538C158.718 12.3839 159.103 12.249 159.553 12.249H171.168C171.625 12.249 172.004 12.3904 172.306 12.6666C172.608 12.9429 172.762 13.309 172.762 13.7652C172.762 14.2213 172.608 14.5811 172.306 14.8509C171.997 15.1207 171.618 15.2556 171.168 15.2556H159.553ZM165.335 30.5585C164.847 30.5585 164.449 30.4043 164.134 30.1023C163.819 29.8004 163.665 29.4214 163.665 28.9652V13.7909H167.063V28.9652C167.063 29.4214 166.903 29.8004 166.581 30.1023C166.26 30.4107 165.843 30.5585 165.342 30.5585H165.335Z" fill="white"/>
<path d="M178.774 28.9651C178.774 29.4213 178.607 29.8003 178.28 30.1023C177.946 30.4106 177.567 30.5584 177.13 30.5584C176.641 30.5584 176.25 30.4042 175.954 30.1023C175.658 29.8003 175.511 29.4213 175.511 28.9651V13.8486C175.511 13.3925 175.665 13.0134 175.98 12.7115C176.295 12.4096 176.693 12.2554 177.181 12.2554C177.599 12.2554 177.971 12.4096 178.292 12.7115C178.614 13.0199 178.774 13.3989 178.774 13.8486V28.9651Z" fill="white"/>
<path d="M196.59 12.249C197.008 12.249 197.348 12.3904 197.612 12.6666C197.875 12.9429 198.003 13.2962 198.003 13.7138V28.9652C198.003 29.4214 197.849 29.8004 197.547 30.1023C197.239 30.4107 196.86 30.5585 196.41 30.5585C196.185 30.5585 195.954 30.5199 195.716 30.4428C195.479 30.3657 195.305 30.2565 195.183 30.1152L184.904 17.0609L185.585 16.6433V29.0937C185.585 29.5113 185.45 29.8582 185.18 30.1409C184.911 30.4171 184.557 30.5585 184.12 30.5585C183.684 30.5585 183.362 30.4171 183.099 30.1409C182.836 29.8646 182.707 29.5113 182.707 29.0937V13.8487C182.707 13.3926 182.861 13.0135 183.163 12.7116C183.465 12.4096 183.844 12.2554 184.3 12.2554C184.544 12.2554 184.795 12.3004 185.058 12.3968C185.322 12.4931 185.514 12.6345 185.637 12.8272L195.601 25.541L195.157 25.8558V13.7138C195.157 13.2962 195.286 12.9493 195.549 12.6666C195.813 12.3904 196.16 12.249 196.597 12.249H196.59Z" fill="white"/>
<path d="M210.556 30.8221C209.233 30.8221 207.993 30.578 206.843 30.0897C205.693 29.6014 204.678 28.9269 203.811 28.0596C202.937 27.1987 202.256 26.1965 201.755 25.0658C201.26 23.9352 201.01 22.7145 201.01 21.404C201.01 20.0934 201.26 18.8728 201.755 17.7421C202.25 16.6114 202.937 15.6092 203.811 14.7483C204.685 13.8875 205.693 13.2065 206.843 12.7182C207.993 12.23 209.233 11.9858 210.556 11.9858C211.379 11.9858 212.169 12.0758 212.94 12.2492C213.704 12.4227 214.411 12.6861 215.06 13.033C215.323 13.1743 215.516 13.3607 215.651 13.5984C215.779 13.8361 215.85 14.0738 215.85 14.3179C215.85 14.7355 215.709 15.1145 215.432 15.4421C215.156 15.7762 214.796 15.9368 214.36 15.9368C214.218 15.9368 214.077 15.9176 213.929 15.8854C213.781 15.8533 213.64 15.7955 213.499 15.7312C213.062 15.5385 212.599 15.3908 212.111 15.288C211.623 15.1852 211.109 15.1338 210.569 15.1338C209.439 15.1338 208.404 15.4165 207.466 15.9818C206.535 16.5471 205.79 17.3052 205.243 18.256C204.697 19.2068 204.421 20.254 204.421 21.4104C204.421 22.5668 204.697 23.5882 205.243 24.5519C205.796 25.5091 206.535 26.2736 207.466 26.839C208.398 27.4043 209.432 27.687 210.569 27.687C211.09 27.687 211.668 27.6356 212.297 27.5328C212.927 27.43 213.441 27.2887 213.839 27.1152L213.602 27.899V23.4276L214.045 23.8195H211.141C210.685 23.8195 210.306 23.6718 210.004 23.3762C209.702 23.0807 209.548 22.7081 209.548 22.252C209.548 21.7958 209.702 21.4232 210.004 21.1277C210.306 20.8322 210.691 20.6844 211.141 20.6844H215.432C215.889 20.6844 216.261 20.8386 216.557 21.1406C216.852 21.4489 217 21.828 217 22.2777V27.8219C217 28.1688 216.916 28.4579 216.749 28.6828C216.582 28.9076 216.396 29.0939 216.184 29.2288C215.381 29.7171 214.507 30.1025 213.557 30.3916C212.606 30.6807 211.61 30.8221 210.563 30.8221H210.556Z" fill="white"/>
<path d="M72.4906 48.3218C72.1501 48.3218 71.8739 48.219 71.6683 48.007C71.4563 47.795 71.3535 47.5316 71.3535 47.2168V36.7451C71.3535 36.4303 71.4563 36.1669 71.6683 35.9549C71.8803 35.7429 72.1437 35.6401 72.4585 35.6401H78.3496C78.6644 35.6401 78.9278 35.7365 79.1398 35.9421C79.3518 36.1412 79.4546 36.3982 79.4546 36.713C79.4546 36.9764 79.3454 37.2141 79.1398 37.4197C78.9278 37.6253 78.6644 37.7281 78.3496 37.7281H73.4543L73.6149 37.5096V41.1522L73.4864 40.9145H77.5273C77.8421 40.9145 78.1055 41.0173 78.3175 41.2165C78.5295 41.4156 78.6323 41.6726 78.6323 41.9874C78.6323 42.2508 78.5295 42.4885 78.3175 42.6941C78.1055 42.8997 77.8421 43.0025 77.5273 43.0025H73.4479L73.6085 42.8418V47.2297C73.6085 47.5445 73.4993 47.8079 73.2744 48.0199C73.0495 48.2319 72.7861 48.3347 72.4842 48.3347L72.4906 48.3218Z" fill="#BF0000"/>
<path d="M83.7971 47.2168C83.7971 47.5316 83.6815 47.795 83.4502 48.007C83.2189 48.219 82.9555 48.3218 82.6536 48.3218C82.3131 48.3218 82.0432 48.219 81.8377 48.007C81.6321 47.795 81.5293 47.5316 81.5293 47.2168V36.7451C81.5293 36.4303 81.6385 36.1669 81.8569 35.9549C82.0754 35.7429 82.3516 35.6401 82.6921 35.6401C82.9812 35.6401 83.2382 35.7429 83.463 35.9549C83.6879 36.1669 83.7971 36.4303 83.7971 36.7451V47.2168Z" fill="#BF0000"/>
<path d="M86.8042 37.7153C86.4894 37.7153 86.226 37.6189 86.014 37.4262C85.802 37.2335 85.6992 36.9765 85.6992 36.6681C85.6992 36.3597 85.802 36.1028 86.014 35.9165C86.226 35.7302 86.4894 35.6338 86.8042 35.6338H94.8475C95.1623 35.6338 95.4257 35.7302 95.6377 35.9229C95.8497 36.1156 95.9525 36.3726 95.9525 36.681C95.9525 36.9893 95.8497 37.2463 95.6377 37.4326C95.4257 37.6189 95.1623 37.7153 94.8475 37.7153H86.8042ZM90.8066 48.3155C90.4661 48.3155 90.1899 48.2127 89.9714 48.0007C89.753 47.7887 89.6438 47.5253 89.6438 47.2105V36.7002H92.0015V47.2105C92.0015 47.5253 91.8923 47.7887 91.6675 48.0007C91.4426 48.2127 91.1599 48.3155 90.8066 48.3155Z" fill="#BF0000"/>
<path d="M107.485 35.6338C107.774 35.6338 108.011 35.7302 108.191 35.9229C108.371 36.1156 108.461 36.3597 108.461 36.6488V47.2169C108.461 47.5317 108.352 47.7951 108.146 48.0071C107.934 48.2191 107.671 48.3219 107.356 48.3219C107.202 48.3219 107.041 48.2962 106.874 48.2384C106.714 48.187 106.585 48.1099 106.502 48.0135L99.3771 38.968L99.846 38.6789V47.3069C99.846 47.596 99.7497 47.8401 99.5634 48.0328C99.3771 48.2255 99.1329 48.3219 98.831 48.3219C98.5291 48.3219 98.3042 48.2255 98.1243 48.0328C97.9444 47.8401 97.8545 47.596 97.8545 47.3069V36.7388C97.8545 36.424 97.9573 36.1606 98.1693 35.9486C98.3813 35.7366 98.6447 35.6338 98.9595 35.6338C99.1265 35.6338 99.3064 35.6659 99.4863 35.7302C99.6662 35.7944 99.8011 35.8972 99.8846 36.0321L106.791 44.8399L106.482 45.0583V36.6488C106.482 36.3597 106.572 36.1156 106.752 35.9229C106.932 35.7302 107.176 35.6338 107.478 35.6338H107.485Z" fill="#BF0000"/>
<path d="M112.283 35.6338H118.354C118.669 35.6338 118.932 35.7302 119.144 35.9357C119.356 36.1349 119.459 36.3919 119.459 36.7067C119.459 37.0215 119.35 37.2527 119.144 37.439C118.939 37.6253 118.669 37.7217 118.354 37.7217H113.279L113.439 37.4133V40.9467L113.292 40.799H117.532C117.846 40.799 118.11 40.8953 118.322 41.1009C118.534 41.3001 118.637 41.5571 118.637 41.8718C118.637 42.1866 118.527 42.4179 118.322 42.6042C118.11 42.7905 117.846 42.8869 117.532 42.8869H113.343L113.433 42.7391V46.401L113.285 46.2404H118.341C118.656 46.2404 118.919 46.3496 119.131 46.5552C119.343 46.7672 119.446 47.0113 119.446 47.2876C119.446 47.5895 119.337 47.8401 119.131 48.0328C118.926 48.2255 118.656 48.3219 118.341 48.3219H112.27C111.955 48.3219 111.692 48.2191 111.48 48.0071C111.268 47.7951 111.165 47.5317 111.165 47.2169V36.7452C111.165 36.4304 111.268 36.167 111.48 35.955C111.692 35.743 111.955 35.6402 112.27 35.6402L112.283 35.6338Z" fill="#BF0000"/>
<path d="M125.62 48.5018C124.772 48.5018 124.014 48.3925 123.34 48.187C122.665 47.975 122.016 47.6023 121.399 47.0755C121.245 46.9406 121.123 46.7929 121.04 46.6194C120.956 46.4524 120.911 46.2789 120.911 46.1119C120.911 45.8356 121.014 45.5915 121.213 45.3795C121.412 45.1675 121.663 45.0647 121.965 45.0647C122.196 45.0647 122.402 45.1354 122.581 45.2832C123.038 45.6558 123.494 45.9449 123.95 46.1376C124.406 46.3303 124.958 46.4267 125.627 46.4267C126.076 46.4267 126.481 46.356 126.86 46.2211C127.233 46.0798 127.535 45.8935 127.766 45.6622C127.997 45.4309 128.113 45.1547 128.113 44.8527C128.113 44.493 128.004 44.1846 127.785 43.9276C127.567 43.6771 127.233 43.4586 126.789 43.2852C126.34 43.1117 125.774 42.9768 125.087 42.8804C124.432 42.7841 123.86 42.6363 123.365 42.4372C122.871 42.238 122.453 41.981 122.125 41.6791C121.798 41.3771 121.541 41.0109 121.374 40.5934C121.207 40.1758 121.123 39.7068 121.123 39.1864C121.123 38.4027 121.322 37.7281 121.733 37.1756C122.138 36.6231 122.684 36.1991 123.372 35.91C124.059 35.6209 124.824 35.4731 125.652 35.4731C126.436 35.4731 127.168 35.5888 127.837 35.8265C128.505 36.0642 129.051 36.3597 129.475 36.7259C129.828 37.0021 130.002 37.3234 130.002 37.6896C130.002 37.953 129.899 38.1971 129.693 38.4155C129.488 38.6339 129.244 38.7431 128.967 38.7431C128.787 38.7431 128.62 38.6918 128.479 38.5825C128.286 38.4155 128.023 38.2549 127.702 38.1007C127.374 37.9529 127.034 37.8245 126.667 37.7217C126.301 37.6189 125.967 37.5675 125.652 37.5675C125.132 37.5675 124.695 37.6317 124.342 37.7666C123.988 37.9016 123.719 38.0814 123.539 38.3127C123.359 38.544 123.269 38.8074 123.269 39.1093C123.269 39.4691 123.378 39.771 123.584 40.0087C123.789 40.2464 124.098 40.4328 124.496 40.5677C124.894 40.709 125.37 40.8311 125.929 40.9403C126.655 41.0752 127.291 41.2294 127.843 41.4093C128.396 41.5891 128.852 41.8204 129.211 42.1095C129.571 42.3986 129.847 42.752 130.027 43.176C130.207 43.6064 130.297 44.1268 130.297 44.7435C130.297 45.5273 130.079 46.2083 129.642 46.7736C129.205 47.3389 128.633 47.7758 127.927 48.0777C127.22 48.3797 126.455 48.5339 125.633 48.5339L125.62 48.5018Z" fill="#BF0000"/>
<path d="M136.439 48.5018C135.591 48.5018 134.832 48.3925 134.158 48.187C133.483 47.975 132.834 47.6023 132.218 47.0755C132.057 46.9406 131.941 46.7929 131.858 46.6194C131.774 46.4524 131.729 46.2789 131.729 46.1119C131.729 45.8356 131.832 45.5915 132.025 45.3795C132.224 45.1675 132.475 45.0647 132.777 45.0647C133.008 45.0647 133.214 45.1354 133.393 45.2832C133.85 45.6558 134.306 45.9449 134.762 46.1376C135.218 46.3303 135.777 46.4267 136.439 46.4267C136.888 46.4267 137.293 46.356 137.672 46.2211C138.051 46.0862 138.347 45.8935 138.578 45.6622C138.809 45.4245 138.925 45.1547 138.925 44.8527C138.925 44.493 138.816 44.1846 138.597 43.9276C138.379 43.6771 138.045 43.4586 137.601 43.2852C137.152 43.1117 136.586 42.9768 135.899 42.8804C135.25 42.7841 134.672 42.6363 134.177 42.4372C133.682 42.238 133.265 41.981 132.937 41.6791C132.603 41.3707 132.353 41.0109 132.186 40.5934C132.019 40.1758 131.929 39.7068 131.929 39.1864C131.929 38.4027 132.134 37.7281 132.539 37.1756C132.944 36.6231 133.49 36.1991 134.177 35.91C134.865 35.6209 135.629 35.4731 136.458 35.4731C137.242 35.4731 137.974 35.5888 138.642 35.8265C139.31 36.0642 139.856 36.3597 140.28 36.7259C140.627 37.0021 140.807 37.3234 140.807 37.6896C140.807 37.953 140.704 38.1971 140.499 38.4155C140.293 38.6339 140.049 38.7431 139.773 38.7431C139.593 38.7431 139.426 38.6918 139.285 38.5825C139.092 38.4155 138.828 38.2549 138.507 38.1007C138.18 37.9529 137.839 37.8245 137.473 37.7217C137.113 37.6189 136.773 37.5675 136.458 37.5675C135.937 37.5675 135.501 37.6317 135.147 37.7666C134.787 37.9016 134.524 38.0814 134.338 38.3127C134.158 38.544 134.068 38.8074 134.068 39.1093C134.068 39.4691 134.171 39.771 134.383 40.0087C134.595 40.2464 134.897 40.4328 135.295 40.5677C135.693 40.709 136.169 40.8311 136.728 40.9403C137.454 41.0752 138.09 41.2294 138.642 41.4093C139.195 41.5891 139.651 41.8204 140.01 42.1095C140.37 42.3922 140.647 42.752 140.826 43.176C141.006 43.6064 141.096 44.1268 141.096 44.7435C141.096 45.5273 140.878 46.2083 140.441 46.7736C140.004 47.3389 139.432 47.7758 138.726 48.0777C138.019 48.3797 137.254 48.5339 136.432 48.5339L136.439 48.5018Z" fill="#BF0000"/>
</svg>
